{
  "accessors": [
    {
      "bufferView": 1,
      "componentType": 5126,
      "count": 252,
      "max": [
        11.0,
        -7.938000202178955,
        -8.406999588012695
      ],
      "min": [
        -21.461000442504883,
        -22.12299919128418,
        -22.593000411987305
      ],
      "type": "VEC3"
    },
    {
      "bufferView": 1,
      "byteOffset": 3024,
      "componentType": 5126,
      "count": 252,
      "max": [
        1.0,
        0.7074369788169861,
        0.7072895169258118
      ],
      "min": [
        -1.0,
        -0.7074992060661316,
        -0.7074160575866699
      ],
      "type": "VEC3"
    },
    {
      "bufferView": 0,
      "componentType": 5125,
      "count": 600,
      "type": "SCALAR"
    }
  ],
  "asset": {
    "extras": {
      "author": "meg-weis (https://sketchfab.com/meg-weis)",
      "license": "CC-BY-4.0 (http://creativecommons.org/licenses/by/4.0/)",
      "source": "https://sketchfab.com/3d-models/air-a8cf5fe683854cb9a0b5337577e889c9",
      "title": "Air"
    },
    "generator": "Sketchfab-12.68.0",
    "version": "2.0"
  },
  "bufferViews": [
    {
      "buffer": 0,
      "byteLength": 2400,
      "name": "floatBufferViews",
      "target": 34963
    },
    {
      "buffer": 0,
      "byteLength": 6048,
      "byteOffset": 2400,
      "byteStride": 12,
      "name": "floatBufferViews",
      "target": 34962
    }
  ],
  "buffers": [
    {
      "byteLength": 8448,
      "uri": "scene.bin"
    }
  ],
  "materials": [
    {
      "alphaMode": "BLEND",
      "doubleSided": true,
      "name": "color_-1028593425",
      "pbrMetallicRoughness": {
        "baseColorFactor": [
          0.690196,
          0.909804,
          0.937255,
          0.239216
        ],
        "metallicFactor": 0.0
      }
    }
  ],
  "meshes": [
    {
      "name": "Object_0",
      "primitives": [
        {
          "attributes": {
            "NORMAL": 1,
            "POSITION": 0
          },
          "indices": 2,
          "material": 0,
          "mode": 4
        }
      ]
    }
  ],
  "nodes": [
    {
      "children": [
        1
      ],
      "matrix": [
        1.0,
        -2.9588895711899567e-17,
        -1.1158555290266016e-16,
        0.0,
        -8.603624003427758e-17,
        0.4534597694873812,
        -0.891276717185974,
        0.0,
        7.697145886888457e-17,
        0.891276717185974,
        0.4534597694873812,
        0.0,
        -3.552713678800501e-15,
        5.130517482757567,
        8.662792205810549,
        1.0
      ],
      "name": "Sketchfab_model"
    },
    {
      "children": [
        2
      ],
      "name": "tinker.obj.cleaner.materialmerger.gles"
    },
    {
      "mesh": 0,
      "name": "Object_2"
    }
  ],
  "scene": 0,
  "scenes": [
    {
      "name": "Sketchfab_Scene",
      "nodes": [
        0
      ]
    }
  ]
}
