{
  "accessors": [
    {
      "bufferView": 1,
      "componentType": 5126,
      "count": 318,
      "max": [
        -13.0,
        -12.0,
        -10.24899959564209
      ],
      "min": [
        -54.224998474121094,
        -27.128999710083008,
        -17.219999313354492
      ],
      "type": "VEC3"
    },
    {
      "bufferView": 1,
      "byteOffset": 3816,
      "componentType": 5126,
      "count": 318,
      "max": [
        1.0,
        0.9998512268066406,
        0.9998548626899719
      ],
      "min": [
        -1.0,
        -0.9998469948768616,
        -0.9998587965965271
      ],
      "type": "VEC3"
    },
    {
      "bufferView": 0,
      "componentType": 5125,
      "count": 708,
      "type": "SCALAR"
    }
  ],
  "asset": {
    "extras": {
      "author": "meg-weis (https://sketchfab.com/meg-weis)",
      "license": "CC-BY-4.0 (http://creativecommons.org/licenses/by/4.0/)",
      "source": "https://sketchfab.com/3d-models/fire-bc32bd4eed9e48468ce88430eb62fb3c",
      "title": "fire"
    },
    "generator": "Sketchfab-12.68.0",
    "version": "2.0"
  },
  "bufferViews": [
    {
      "buffer": 0,
      "byteLength": 2832,
      "name": "floatBufferViews",
      "target": 34963
    },
    {
      "buffer": 0,
      "byteLength": 7632,
      "byteOffset": 2832,
      "byteStride": 12,
      "name": "floatBufferViews",
      "target": 34962
    }
  ],
  "buffers": [
    {
      "byteLength": 10464,
      "uri": "scene.bin"
    }
  ],
  "materials": [
    {
      "doubleSided": true,
      "name": "color_15277357",
      "pbrMetallicRoughness": {
        "baseColorFactor": [
          0.913725,
          0.113725,
          0.176471,
          1.0
        ],
        "metallicFactor": 0.0
      }
    }
  ],
  "meshes": [
    {
      "name": "Object_0",
      "primitives": [
        {
          "attributes": {
            "NORMAL": 1,
            "POSITION": 0
          },
          "indices": 2,
          "material": 0,
          "mode": 4
        }
      ]
    }
  ],
  "nodes": [
    {
      "children": [
        1
      ],
      "matrix": [
        1.0,
        0.0,
        0.0,
        0.0,
        0.0,
        -1.0,
        -4.440892098500626e-16,
        0.0,
        0.0,
        4.440892098500626e-16,
        -1.0,
        0.0,
        0.0,
        -33.29899597167969,
        5.829994678497307,
        1.0
      ],
      "name": "Sketchfab_model"
    },
    {
      "children": [
        2
      ],
      "name": "tinker.obj.cleaner.materialmerger.gles"
    },
    {
      "mesh": 0,
      "name": "Object_2"
    }
  ],
  "scene": 0,
  "scenes": [
    {
      "name": "Sketchfab_Scene",
      "nodes": [
        0
      ]
    }
  ]
}
