{
  "accessors": [
    {
      "bufferView": 1,
      "componentType": 5126,
      "count": 426,
      "max": [
        5.690000057220459,
        7.0,
        -12.300000190734863
      ],
      "min": [
        -57.73699951171875,
        -13.663000106811523,
        -24.450000762939453
      ],
      "type": "VEC3"
    },
    {
      "bufferView": 1,
      "byteOffset": 5112,
      "componentType": 5126,
      "count": 426,
      "max": [
        1.0,
        0.7196817994117737,
        0.7194962501525879
      ],
      "min": [
        -1.0,
        -0.7199623584747314,
        -0.7194961905479431
      ],
      "type": "VEC3"
    },
    {
      "bufferView": 0,
      "componentType": 5125,
      "count": 924,
      "type": "SCALAR"
    }
  ],
  "asset": {
    "extras": {
      "author": "meg-weis (https://sketchfab.com/meg-weis)",
      "license": "CC-BY-4.0 (http://creativecommons.org/licenses/by/4.0/)",
      "source": "https://sketchfab.com/3d-models/water-4083cc2bed5b442eb2e17c0f700d1ec6",
      "title": "water"
    },
    "generator": "Sketchfab-12.68.0",
    "version": "2.0"
  },
  "bufferViews": [
    {
      "buffer": 0,
      "byteLength": 3696,
      "name": "floatBufferViews",
      "target": 34963
    },
    {
      "buffer": 0,
      "byteLength": 10224,
      "byteOffset": 3696,
      "byteStride": 12,
      "name": "floatBufferViews",
      "target": 34962
    }
  ],
  "buffers": [
    {
      "byteLength": 13920,
      "uri": "scene.bin"
    }
  ],
  "materials": [
    {
      "doubleSided": true,
      "name": "color_10677498",
      "pbrMetallicRoughness": {
        "baseColorFactor": [
          0.635294,
          0.92549,
          0.980392,
          1.0
        ],
        "metallicFactor": 0.6218877113620196
      }
    }
  ],
  "meshes": [
    {
      "name": "Object_0",
      "primitives": [
        {
          "attributes": {
            "NORMAL": 1,
            "POSITION": 0
          },
          "indices": 2,
          "material": 0,
          "mode": 4
        }
      ]
    }
  ],
  "nodes": [
    {
      "children": [
        1
      ],
      "matrix": [
        1.0,
        0.0,
        0.0,
        0.0,
        0.0,
        -1.0,
        0.0,
        0.0,
        0.0,
        0.0,
        -1.0,
        0.0,
        0.0,
        -21.706480026245114,
        -15.04351139068604,
        1.0
      ],
      "name": "Sketchfab_model"
    },
    {
      "children": [
        2
      ],
      "name": "tinker.obj.cleaner.materialmerger.gles"
    },
    {
      "mesh": 0,
      "name": "Object_2"
    }
  ],
  "scene": 0,
  "scenes": [
    {
      "name": "Sketchfab_Scene",
      "nodes": [
        0
      ]
    }
  ]
}
